<?xml version="1.0" encoding="utf-8"?>
<!-- Generator: Adobe Illustrator 27.6.1, SVG Export Plug-In . SVG Version: 6.00 Build 0)  -->
<svg version="1.1" id="Capa_1" xmlns="http://www.w3.org/2000/svg" xmlns:xlink="http://www.w3.org/1999/xlink" x="0px" y="0px"
	 viewBox="0 0 453 74.5" style="enable-background:new 0 0 453 74.5;" xml:space="preserve">
<style type="text/css">
	.st0{fill:#fff;}
</style>
<g id="SvgjsG1017" transform="matrix(0.8784552683355201,0,0,0.8784552683355201,5.5164811621694785,-0.9608815301068816)">
	<path class="st0" d="M82.1,34.4C76.7,14.5,64.8,17,59.8,20c-5,3-7.5,4.5-12.9,4.5c-5.4,0-7.9-1.5-12.9-4.5c-5-3-16.9-5.5-22.3,14.4
		C6.4,54.2-0.2,93.6,27.6,67.8c0,0,6.9-7.8,19.3-7.8c11.9,0,19.3,7.8,19.3,7.8C94,93.6,87.4,54.2,82.1,34.4z M24.8,41.1
		c-3.2,0-5.8-2.6-5.8-5.8c0-3.2,2.6-5.8,5.8-5.8s5.8,2.6,5.8,5.8C30.6,38.5,28,41.1,24.8,41.1z M36.5,53.9c-3.7,0-6.7-3-6.7-6.7
		c0-3.7,3-6.7,6.7-6.7c3.7,0,6.7,3,6.7,6.7C43.2,50.9,40.2,53.9,36.5,53.9z M57.4,44.2c-2,0-3.7-1.6-3.7-3.7c0-2,1.6-3.7,3.7-3.7
		c2,0,3.7,1.6,3.7,3.7C61.1,42.6,59.5,44.2,57.4,44.2z M64.4,51.7c-2,0-3.7-1.6-3.7-3.7c0-2,1.6-3.7,3.7-3.7c2,0,3.7,1.6,3.7,3.7
		C68,50,66.4,51.7,64.4,51.7z M64.4,36.8c-2,0-3.7-1.6-3.7-3.7c0-2,1.6-3.7,3.7-3.7c2,0,3.7,1.6,3.7,3.7
		C68,35.2,66.4,36.8,64.4,36.8z M72.3,44.2c-2,0-3.7-1.6-3.7-3.7c0-2,1.6-3.7,3.7-3.7c2,0,3.7,1.6,3.7,3.7
		C75.9,42.6,74.3,44.2,72.3,44.2z"/>
</g>
<g id="SvgjsG1018" transform="matrix(1.8224183211559686,0,0,1.8224183211559686,98.43272119535733,12.035615089555264)">
	<path class="st0" d="M15.4,22.9c-1.1,1.1-2.7,1.6-4.8,1.6c-2.4,0-4.5-0.6-6.1-1.9l1.7-2.5c0.5,0.4,1.2,0.8,1.9,1
		c0.7,0.3,1.5,0.4,2.3,0.4c2.2,0,3.3-1,3.3-3v-0.2c-0.9,0.8-2.1,1.1-3.6,1.1c-1.3,0-2.5-0.3-3.6-0.8c-1-0.6-1.8-1.3-2.3-2.3
		s-0.8-2.1-0.8-3.2c0-1.2,0.3-2.3,0.8-3.2c0.5-1,1.3-1.7,2.3-2.3c1-0.6,2.2-0.9,3.6-0.9c1.5,0,2.7,0.4,3.6,1.1V6.9h3.4v11.7
		C17.2,20.4,16.6,21.9,15.4,22.9z M12.1,16.1c0.5-0.3,1-0.7,1.3-1.3c0.3-0.5,0.5-1.1,0.5-1.8c0-0.7-0.2-1.2-0.5-1.8
		c-0.3-0.5-0.7-0.9-1.3-1.2c-0.5-0.3-1.1-0.5-1.8-0.5c-1.1,0-1.9,0.3-2.5,1c-0.6,0.7-1,1.5-1,2.5c0,1,0.3,1.9,0.9,2.5s1.5,1,2.6,1
		C11,16.6,11.6,16.4,12.1,16.1z M30.3,18.4c-0.3,0.4-0.8,0.8-1.5,1.1C28,19.8,27.3,20,26.4,20c-1.3,0-2.5-0.3-3.4-0.9
		c-1-0.6-1.7-1.4-2.2-2.4c-0.5-1-0.8-2.1-0.8-3.4s0.3-2.4,0.8-3.4c0.5-1,1.3-1.8,2.2-2.4c1-0.6,2.1-0.9,3.4-0.9
		c0.9,0,1.7,0.2,2.3,0.5s1.2,0.7,1.5,1.2V6.9h3.4v12.8h-3.4V18.4z M29.5,10.7c-0.6-0.7-1.5-1-2.6-1c-1.1,0-1.9,0.3-2.6,1
		c-0.6,0.7-0.9,1.5-0.9,2.6c0,1,0.3,1.9,1,2.6c0.6,0.7,1.5,1,2.5,1c1.1,0,1.9-0.3,2.6-1c0.6-0.6,0.9-1.5,0.9-2.6
		C30.4,12.3,30.1,11.4,29.5,10.7z M56.3,8.1c0.9,1,1.3,2.3,1.3,4v7.6h-3.5v-7.6c0-0.9-0.2-1.6-0.7-2c-0.5-0.4-1.1-0.6-1.8-0.6
		c-0.6,0-1.2,0.2-1.7,0.7s-0.8,1.2-0.8,2.3v7.1h-3.5v-7.6c0-0.9-0.2-1.6-0.7-2c-0.5-0.4-1.1-0.6-1.8-0.6c-0.7,0-1.2,0.2-1.7,0.7
		c-0.5,0.5-0.7,1.4-0.7,2.6l0,6.8h-3.5V6.9h3.5v1.2c0.4-0.4,1-0.7,1.6-1c0.6-0.3,1.2-0.4,1.7-0.4c1.8,0,3.2,0.6,4.1,1.7
		c0.5-0.5,1.1-1,1.8-1.3c0.7-0.3,1.5-0.5,2.3-0.5C54,6.7,55.4,7.2,56.3,8.1z M64.4,19.4c-1.1-0.4-2-1.1-2.7-2.1
		c-0.8-1-1.1-2.3-1.1-3.9s0.4-2.9,1.2-3.9c0.8-1,1.7-1.7,2.8-2.1c1.1-0.4,2.1-0.6,3-0.6c1.1,0,2.2,0.2,3.2,0.7
		c1,0.5,1.8,1.2,2.5,2.2s1,2.1,1,3.4c0,0.4,0,0.8,0,1c0,0.3,0,0.5,0,0.6H64c0.2,0.9,0.7,1.5,1.4,1.8c0.7,0.3,1.4,0.5,2.1,0.5
		c0.8,0,1.5-0.2,2-0.5c0.5-0.3,0.9-0.6,1.3-1l2.7,1.6c-1.5,2-3.4,3-6,3C66.5,20,65.5,19.8,64.4,19.4z M65.1,10.5
		c-0.6,0.5-0.9,1.1-1,1.7h6.4c0-0.4-0.2-0.8-0.5-1.2c-0.3-0.4-0.6-0.7-1.1-0.9c-0.4-0.2-0.9-0.4-1.5-0.4C66.5,9.8,65.8,10,65.1,10.5
		z M83.1,10.3c-0.7,0.2-1.3,0.5-1.8,1.2c-0.6,0.6-0.8,1.5-0.8,2.7v5.7H77V6.9h3.5v1.7c0.6-0.8,1.3-1.3,2.1-1.5
		c0.8-0.3,1.6-0.4,2.3-0.4v3.4C84.3,10,83.8,10.1,83.1,10.3L83.1,10.3z M96.7,19.1c-1.1-0.6-1.9-1.4-2.5-2.4c-0.6-1-0.9-2.1-0.9-3.3
		c0-1.2,0.3-2.3,0.9-3.3c0.6-1,1.5-1.8,2.5-2.4c1.1-0.6,2.2-0.9,3.5-0.9c1.3,0,2.6,0.3,3.7,1c1.1,0.6,2,1.6,2.6,2.8l-3.1,1.2
		c-0.4-0.6-0.8-1.1-1.4-1.4c-0.5-0.3-1.1-0.5-1.8-0.5c-1,0-1.8,0.3-2.5,1c-0.7,0.7-1,1.5-1,2.6s0.3,1.9,1,2.6c0.7,0.7,1.5,1,2.5,1
		c1.4,0,2.5-0.6,3.2-1.9l3,1.2c-1.2,2.5-3.3,3.8-6.2,3.8C99,20,97.8,19.7,96.7,19.1L96.7,19.1z M111.6,19.1
		c-1.1-0.6-1.9-1.4-2.5-2.4c-0.6-1-0.9-2.1-0.9-3.3c0-1.2,0.3-2.3,0.9-3.3s1.5-1.8,2.5-2.4c1.1-0.6,2.2-0.9,3.5-0.9
		c1.3,0,2.4,0.3,3.5,0.9c1.1,0.6,1.9,1.4,2.5,2.4s0.9,2.1,0.9,3.3c0,1.2-0.3,2.3-0.9,3.3c-0.6,1-1.5,1.8-2.5,2.4
		c-1.1,0.6-2.2,0.9-3.5,0.9S112.6,19.7,111.6,19.1z M113.3,10.2c-0.5,0.3-1,0.8-1.3,1.3c-0.3,0.6-0.5,1.2-0.5,1.8
		c0,0.7,0.2,1.3,0.5,1.9c0.3,0.6,0.7,1,1.3,1.3c0.5,0.3,1.1,0.5,1.8,0.5c0.7,0,1.2-0.2,1.8-0.5c0.5-0.3,1-0.8,1.3-1.3
		c0.3-0.6,0.5-1.2,0.5-1.9c0-0.7-0.2-1.3-0.5-1.8c-0.3-0.6-0.7-1-1.3-1.3c-0.5-0.3-1.1-0.5-1.8-0.5C114.4,9.7,113.8,9.9,113.3,10.2
		L113.3,10.2z M143.9,8.1c0.9,1,1.3,2.3,1.3,4v7.6h-3.5v-7.6c0-0.9-0.2-1.6-0.7-2c-0.5-0.4-1.1-0.6-1.8-0.6c-0.6,0-1.2,0.2-1.7,0.7
		c-0.5,0.5-0.8,1.2-0.8,2.3v7.1h-3.5v-7.6c0-0.9-0.2-1.6-0.7-2c-0.5-0.4-1.1-0.6-1.8-0.6c-0.7,0-1.2,0.2-1.7,0.7s-0.7,1.4-0.7,2.6
		l0,6.8h-3.5V6.9h3.5v1.2c0.4-0.4,1-0.7,1.6-1c0.6-0.3,1.2-0.4,1.7-0.4c1.8,0,3.2,0.6,4.1,1.7c0.5-0.5,1.1-1,1.8-1.3
		c0.7-0.3,1.5-0.5,2.3-0.5C141.7,6.7,143.1,7.2,143.9,8.1L143.9,8.1z M152.3,8.2c0.3-0.4,0.8-0.8,1.5-1.1s1.5-0.5,2.4-0.5
		c1.3,0,2.5,0.3,3.4,0.9c1,0.6,1.7,1.4,2.2,2.4c0.5,1,0.8,2.1,0.8,3.4s-0.3,2.4-0.8,3.4c-0.5,1-1.3,1.8-2.2,2.4
		c-1,0.6-2.1,0.9-3.4,0.9c-0.9,0-1.7-0.2-2.3-0.5c-0.7-0.3-1.2-0.7-1.5-1.2v5.4h-3.4V6.9h3.4C152.3,6.9,152.3,8.2,152.3,8.2z
		 M153.1,15.9c0.6,0.7,1.5,1,2.6,1c1.1,0,1.9-0.3,2.6-1c0.6-0.7,0.9-1.5,0.9-2.6c0-1-0.3-1.9-1-2.6c-0.6-0.7-1.5-1-2.5-1
		c-1.1,0-1.9,0.3-2.6,1c-0.6,0.6-0.9,1.5-0.9,2.6C152.2,14.4,152.5,15.3,153.1,15.9z M171.5,10.3c-0.7,0.2-1.3,0.5-1.8,1.2
		c-0.6,0.6-0.8,1.5-0.8,2.7v5.7h-3.5V6.9h3.5v1.7c0.6-0.8,1.3-1.3,2.1-1.5c0.8-0.3,1.6-0.4,2.3-0.4v3.4
		C172.8,10,172.2,10.1,171.5,10.3L171.5,10.3z M184.8,18.4c-0.3,0.4-0.8,0.8-1.5,1.1c-0.7,0.3-1.5,0.5-2.4,0.5
		c-1.3,0-2.5-0.3-3.4-0.9c-1-0.6-1.7-1.4-2.2-2.4c-0.5-1-0.8-2.1-0.8-3.4s0.3-2.4,0.8-3.4c0.5-1,1.3-1.8,2.2-2.4
		c1-0.6,2.1-0.9,3.4-0.9c0.9,0,1.7,0.2,2.3,0.5c0.7,0.3,1.2,0.7,1.5,1.2V6.9h3.4v12.8h-3.4V18.4z M184,10.7c-0.6-0.7-1.5-1-2.6-1
		c-1.1,0-1.9,0.3-2.6,1c-0.6,0.7-0.9,1.5-0.9,2.6c0,1,0.3,1.9,1,2.6s1.5,1,2.5,1c1.1,0,1.9-0.3,2.6-1c0.6-0.6,0.9-1.5,0.9-2.6
		C184.9,12.3,184.6,11.4,184,10.7z"/>
</g>
</svg>
